<?xml version="1.0" encoding="utf-8"?>
<!-- Generator: Adobe Illustrator 25.2.1, SVG Export Plug-In . SVG Version: 6.00 Build 0)  -->
<svg version="1.1" id="Layer_1" xmlns="http://www.w3.org/2000/svg" xmlns:xlink="http://www.w3.org/1999/xlink" x="0px" y="0px"
	 viewBox="0 0 512 512" style="enable-background:new 0 0 512 512;" xml:space="preserve">
<style type="text/css">
	.st0{fill:#FFFFFF;}
</style>
<g>
	<path class="st0" d="M380,70.2c-3.8-3.8-9.9-3.8-13.7,0c-3.8,3.8-3.8,9.9,0,13.7s9.9,3.8,13.7,0C383.8,80.1,383.8,74,380,70.2
		L380,70.2z"/>
	<path class="st0" d="M263,56.2c1.2,1.2,2.6,2,4.3,2.5c5.2,1.4,10.5-1.6,11.9-6.8c1.4-5.2-1.6-10.5-6.8-11.9l0,0
		c-5.2-1.4-10.5,1.6-11.9,6.8C259.5,50.3,260.6,53.9,263,56.2z"/>
	<path class="st0" d="M157,79c0.4,1.9,1.3,3.6,2.6,4.9c2.2,2.2,5.5,3.3,8.8,2.7c5.2-1.1,8.7-6.2,7.6-11.4c-1.1-5.2-6.2-8.7-11.4-7.6
		l0,0C159.4,68.6,156,73.7,157,79L157,79z"/>
	<path class="st0" d="M97.8,145.8c-3.8-3.8-9.9-3.8-13.7,0l0,0c-3.8,3.8-3.8,9.9,0,13.7c3.8,3.8,9.9,3.8,13.7,0
		C101.5,155.8,101.5,149.6,97.8,145.8z"/>
	<path class="st0" d="M53.7,254.1c-0.7,3.3,0.4,6.5,2.7,8.8c1.3,1.3,3,2.3,5,2.6c5.3,1.1,10.4-2.4,11.4-7.6
		c1.1-5.3-2.4-10.4-7.6-11.4C59.9,245.5,54.8,248.9,53.7,254.1L53.7,254.1z"/>
	<path class="st0" d="M94,368.5c5.1-1.7,7.8-7.2,6.1-12.3c-1.7-5.1-7.2-7.8-12.3-6.1c-5.1,1.7-7.8,7.2-6.1,12.3l0,0
		c0.5,1.5,1.3,2.8,2.3,3.8C86.6,368.7,90.4,369.7,94,368.5L94,368.5z"/>
	<path class="st0" d="M173.4,428.1c-3.8-3.8-9.9-3.8-13.7,0c-3.8,3.8-3.8,9.9,0,13.7l0,0c3.8,3.8,9.9,3.8,13.7,0
		C177.2,438,177.2,431.9,173.4,428.1z"/>
	<path class="st0" d="M273.4,453.6c-5-2-10.6,0.4-12.6,5.4c-1.5,3.7-0.5,7.8,2.1,10.5c0.9,0.9,2,1.6,3.3,2.1l0,0
		c5,2,10.6-0.4,12.6-5.4C280.8,461.2,278.4,455.6,273.4,453.6L273.4,453.6z"/>
	<path class="st0" d="M409.7,467c7.1-7.8,9.8-14.7,12.2-20.8c2.7-6.9,5.2-13.3,15.1-23.2c9.8-9.8,16.3-12.4,23.2-15.1
		c6.7-2.6,14.2-5.6,23-14.4c18.9-18.9,18.9-49.8,0-68.7c-18.9-18.9-49.8-18.9-68.7,0c-8.8,8.8-11.8,16.4-14.4,23
		c-2.7,6.9-5.2,13.3-15.1,23.2c-9.8,9.8-16.3,12.4-23.2,15.1c-4.2,1.6-8.5,3.3-13.3,6.4c-5,2.6-8.6,5.5-11.9,8.2
		c-5.8,4.6-11.2,8.9-24.6,12.5c-13.4,3.6-20.3,2.6-27.6,1.5c-4.4-0.7-9-1.3-14.6-1.1c-5.6-0.3-10.2,0.4-14.5,1.1
		c-7.3,1.1-14.2,2.1-27.6-1.5s-18.9-7.9-24.6-12.5c-3.5-2.8-7.1-5.7-12.2-8.3c-4.7-3-9-4.7-13-6.3c-6.9-2.7-13.3-5.2-23.2-15.1
		c0,0,0,0,0,0c-9.8-9.8-12.4-16.3-15.1-23.2c-1.6-4.2-3.3-8.5-6.4-13.3c-2.6-5-5.5-8.6-8.1-11.9c-4.6-5.8-8.9-11.2-12.5-24.6
		s-2.6-20.3-1.5-27.6c0.7-4.4,1.3-9,1.1-14.6c0.2-5.6-0.4-10.2-1.1-14.5c-1.1-7.3-2.1-14.2,1.5-27.6c3.6-13.4,7.9-18.9,12.5-24.6
		c2.8-3.5,5.7-7.1,8.3-12.2c3-4.7,4.7-9,6.3-13c2.7-6.9,5.2-13.3,15.1-23.2c9.8-9.8,16.3-12.4,23.2-15.1c4.2-1.6,8.5-3.3,13.3-6.4
		c5-2.6,8.6-5.5,11.9-8.1c5.8-4.6,11.2-8.9,24.6-12.5c13.4-3.6,20.3-2.6,27.6-1.5c4.4,0.7,9,1.3,14.6,1.1c5.6,0.3,10.2-0.4,14.5-1.1
		c7.3-1.1,14.2-2.1,27.6,1.5c13.5,3.6,19.2,8.2,25.3,13c3.7,2.9,7.5,6,12.8,8.6c4.6,2.3,10.3,0.6,12.8-3.9c2.5-4.5,1.1-10.2-3.3-13
		c-2.4-1.5-4.7-3.3-7-5.7c-11.4-11.4-11.4-29.9,0-41.3c11.4-11.4,29.9-11.4,41.3,0c5.9,5.9,7.7,10.3,10,16.4
		c3,7.6,6.7,17.1,19.4,29.8c12.7,12.7,22.2,16.4,29.8,19.4c6.1,2.4,10.4,4.1,16.4,10c11.4,11.4,11.4,29.9,0,41.3
		c-11.4,11.4-29.9,11.4-41.3,0c-2.3-2.3-4.2-4.6-5.7-7c-2.8-4.5-8.8-5.9-13.4-3.1c-4.5,2.8-5.9,8.8-3.1,13.4c2.3,3.6,5,7.1,8.4,10.5
		c18.9,18.9,49.8,18.9,68.7,0s18.9-49.8,0-68.7c-8.8-8.8-16.4-11.8-23-14.4c-6.9-2.7-13.3-5.2-23.2-15.1
		c-9.8-9.8-12.4-16.3-15.1-23.2c-2.6-6.7-5.6-14.2-14.4-23c-6.5-6.5-14.4-10.8-22.7-12.8c-0.1,0-0.3-0.1-0.4-0.1
		c-11.3-2.8-19-1.6-25.8-0.6c-7.3,1.1-14.2,2.1-27.6-1.5s-18.9-7.9-24.6-12.5c-5.6-4.5-11.9-9.5-24-12.8c-8.9-2.4-18-2.1-26.2,0.3
		c-0.1,0-0.2,0-0.3,0.1c-11.1,3.2-17.2,8.1-22.6,12.4c-5.8,4.6-11.2,8.9-24.6,12.5c-13.4,3.6-20.3,2.6-27.6,1.5
		c-7.1-1.1-15.1-2.3-27.1,0.9c-9.4,2.5-17.7,7.7-23.9,14.8c-7.1,7.8-9.8,14.7-12.2,20.8c-2.7,6.9-5.2,13.3-15.1,23.2
		S86.4,101.3,79.6,104c-6.7,2.6-14.2,5.6-23,14.4c-6.6,6.6-10.8,14.5-12.9,22.9c0,0.1,0,0.2-0.1,0.2c-2.8,11.3-1.6,19-0.6,25.8
		c1.1,7.3,2.1,14.2-1.5,27.6c-3.6,13.4-7.9,18.9-12.5,24.6c-4.5,5.6-9.5,11.9-12.8,24c-2.4,8.9-2.1,17.9,0.3,26.1
		c0,0.1,0.1,0.3,0.1,0.4c3.2,11.1,8.1,17.2,12.4,22.6c4.6,5.8,8.9,11.2,12.5,24.6c3.6,13.4,2.6,20.3,1.5,27.6
		c-1.1,7.1-2.3,15.1,0.9,27.1c2.3,8.5,6.7,15.9,12.5,21.7c0.2,0.2,0.5,0.5,0.7,0.7c0.1,0.1,0.1,0.1,0.2,0.2c0,0,0.1,0.1,0.1,0.1
		c8.4,8,15.6,10.9,22,13.4c6.9,2.7,13.3,5.2,23.2,15.1c9.8,9.8,12.4,16.3,15.1,23.2c2.6,6.7,5.6,14.2,14.4,23
		c6.6,6.6,14.6,10.9,23,12.9c0,0,0.1,0,0.1,0c11.3,2.8,19,1.6,25.8,0.6c7.3-1.1,14.2-2.1,27.6,1.5c13.4,3.6,18.9,7.9,24.6,12.5
		c5.6,4.5,11.9,9.5,24,12.8c9.1,2.4,18.5,2.2,27.3-0.6c10.6-3.2,16.6-7.9,21.8-12.1c5.8-4.6,11.2-8.9,24.6-12.5
		c13.4-3.6,20.3-2.6,27.6-1.5c7.1,1.1,15.1,2.3,27.1-0.9C395.2,479.3,403.4,474.2,409.7,467L409.7,467z M469.4,338.6
		c11.4,11.4,11.4,29.9,0,41.3c-5.9,5.9-10.3,7.7-16.4,10c-7.6,3-17.1,6.7-29.8,19.4c-2.1,2.1-3.9,4.1-5.6,6c-5-11.4-14.1-20.2-25-25
		c1.9-1.7,4-3.5,6.1-5.6c12.7-12.7,16.4-22.2,19.4-29.8c2.4-6.1,4.1-10.4,10-16.4C439.5,327.2,458.1,327.2,469.4,338.6L469.4,338.6z
		 M70.2,132.1c5.9-5.9,10.3-7.7,16.4-10c7.6-3,17.1-6.7,29.8-19.4c2.1-2.1,3.9-4.1,5.6-6c2.5,5.6,5.9,10.6,10.1,14.8
		c4.3,4.3,9.4,7.7,14.9,10.2c-1.9,1.7-4,3.5-6.1,5.6c-12.7,12.7-16.4,22.2-19.4,29.8c-1.5,3.7-2.7,6.8-4.8,10.1c0,0-0.1,0.1-0.1,0.1
		c-1.3,2-2.9,4-5.2,6.2c-11.4,11.4-29.9,11.4-41.3,0S58.9,143.4,70.2,132.1z M277.4,21.2c8.1,2.2,11.8,5.1,16.9,9.2
		c6.4,5.1,14.4,11.5,31.7,16.1c2.9,0.8,5.5,1.4,8,1.8c-7.4,10-10.4,22.3-9.1,34.1c-2.4-0.9-5-1.7-7.9-2.4
		c-17.3-4.6-27.4-3.1-35.5-1.9c-4,0.6-7.3,1.1-11.1,0.9c-0.1,0-0.1,0-0.2,0c-2.3-0.1-4.9-0.6-7.9-1.4c-15.5-4.2-24.8-20.2-20.6-35.8
		c2-7.5,6.9-13.8,13.6-17.7S269.9,19.2,277.4,21.2z M159,48.9c8.1-2.2,12.8-1.5,19.2-0.5c8.1,1.2,18.2,2.8,35.5-1.9
		c2.9-0.8,5.5-1.6,7.9-2.4c-1.4,12.4,2.1,24.5,9.2,34.1c-2.5,0.5-5.2,1.1-8.1,1.8c-17.3,4.6-25.3,11-31.7,16.1
		c-3.2,2.5-5.8,4.6-9.2,6.3c0,0,0,0,0,0c-2.1,1.1-4.6,2-7.6,2.8c-15.6,4.2-31.6-5.1-35.8-20.6c-2-7.5-1-15.4,2.9-22.2
		c1-1.8,2.2-3.4,3.5-4.9c0.1-0.1,0.3-0.3,0.4-0.4c0,0,0.1-0.1,0.1-0.1C148.9,53.1,153.6,50.3,159,48.9L159,48.9z M60.3,199.9
		c0.8-2.9,1.4-5.5,1.8-8c10,7.4,22.3,10.4,34.1,9.1c-0.9,2.4-1.7,5-2.4,7.9c-4.6,17.3-3.1,27.4-1.9,35.5c0.6,4,1.1,7.2,0.9,11.1
		c0,0.1,0,0.1,0,0.2c-0.1,2.3-0.6,4.9-1.4,7.9c-4.2,15.6-20.2,24.8-35.8,20.6c-7.5-2-13.8-6.8-17.7-13.6c-1.1-1.8-1.9-3.7-2.5-5.7
		c0-0.1-0.1-0.2-0.1-0.4c0,0,0-0.1,0-0.1c-1.6-5.2-1.7-10.7-0.3-16c2.2-8.1,5.1-11.8,9.2-16.9C49.3,225.2,55.7,217.2,60.3,199.9
		L60.3,199.9z M62.2,347.7c1.2-8.1,2.8-18.2-1.9-35.5c-0.8-2.9-1.6-5.4-2.4-7.8c12.4,1.4,24.5-2.1,34.1-9.2c0.5,2.5,1.1,5.2,1.8,8
		c4.6,17.3,11,25.3,16.1,31.7c2.5,3.1,4.6,5.8,6.3,9.2c0,0,0,0,0,0.1c1.1,2.1,2,4.6,2.8,7.6c4.2,15.6-5.1,31.6-20.6,35.8
		c-15.6,4.2-31.6-5.1-35.8-20.6C60.5,358.8,61.2,354.1,62.2,347.7L62.2,347.7z M135.9,439.2c-3-7.6-6.7-17.1-19.4-29.8
		c-2.1-2.1-4.1-3.9-6-5.6c11.4-5,20.2-14.1,25-25c1.7,1.9,3.5,3.9,5.6,6.1l0,0c12.7,12.7,22.2,16.4,29.8,19.4
		c6.1,2.4,10.4,4.1,16.4,10c11.4,11.4,11.4,29.9,0,41.3c-11.4,11.4-29.9,11.4-41.3,0C140,449.6,138.2,445.3,135.9,439.2z
		 M262.3,490.8c-8.1-2.2-11.8-5.1-16.9-9.2c-6.4-5.1-14.4-11.5-31.7-16.1c-2.9-0.8-5.5-1.4-8-1.8c7.4-10,10.4-22.3,9.1-34.1
		c2.4,0.9,5,1.7,7.9,2.4c17.3,4.6,27.4,3.1,35.5,1.9c4-0.6,7.2-1.1,11.1-0.9c0.1,0,0.1,0,0.2,0c2.3,0.1,4.9,0.6,7.9,1.4
		c15.6,4.2,24.8,20.2,20.6,35.8c-2,7.5-6.9,13.8-13.6,17.7C277.7,491.8,269.8,492.8,262.3,490.8L262.3,490.8z M380.7,463.1
		c-8.1,2.2-12.8,1.5-19.2,0.5c-8.1-1.2-18.2-2.8-35.5,1.9c-2.9,0.8-5.5,1.6-7.9,2.4c1.4-12.4-2.1-24.5-9.2-34.1
		c2.5-0.5,5.2-1.1,8.1-1.8c17.3-4.6,25.3-11,31.7-16.1c3.2-2.5,5.8-4.6,9.2-6.3c0,0,0,0,0.1,0c2.1-1.1,4.5-2,7.6-2.8
		c15.6-4.2,31.6,5.1,35.8,20.7c2,7.5,1,15.4-2.9,22.2c-1,1.7-2.1,3.3-3.4,4.8c-0.2,0.2-0.3,0.4-0.5,0.5c0,0-0.1,0.1-0.1,0.1
		C390.7,458.9,386,461.7,380.7,463.1L380.7,463.1z"/>
	<path class="st0" d="M382.5,432.4c-1.4-5.2-6.7-8.2-11.9-6.8c-5.2,1.4-8.2,6.7-6.8,11.9c0.5,1.7,1.3,3.1,2.5,4.3
		c2.4,2.4,5.9,3.5,9.4,2.5l0,0C380.9,442.9,383.9,437.5,382.5,432.4L382.5,432.4z"/>
	<path class="st0" d="M441.9,366.1c3.8,3.8,9.9,3.8,13.7,0l0,0c3.8-3.8,3.8-9.9,0-13.7c-3.8-3.8-9.9-3.8-13.7,0
		S438.2,362.4,441.9,366.1z"/>
	<path class="st0" d="M439.3,154.5C439.3,154.6,439.3,154.6,439.3,154.5c0.1,0.3,0.1,0.5,0.1,0.7c0,0.1,0,0.1,0.1,0.2
		c0.1,0.3,0.2,0.7,0.3,1c0,0.1,0.1,0.2,0.1,0.3c0.1,0.3,0.3,0.5,0.4,0.8c0.1,0.1,0.1,0.2,0.2,0.3c0.2,0.3,0.3,0.5,0.5,0.8
		c0,0.1,0.1,0.1,0.1,0.2c0.2,0.3,0.5,0.6,0.8,0.9c3.8,3.8,9.9,3.8,13.7,0c3-3,3.6-7.5,1.9-11.1c0-0.1-0.1-0.2-0.1-0.3
		c0-0.1-0.1-0.2-0.2-0.3c-2.1-3.8-6.6-5.9-11-4.7C441.3,144.7,438.3,149.6,439.3,154.5L439.3,154.5z"/>
	<path class="st0" d="M398.7,127.1c-3.8-3.8-9.9-3.8-13.7,0s-3.8,9.9,0,13.7c3.8,3.8,9.9,3.8,13.7,0
		C402.5,137.1,402.5,130.9,398.7,127.1L398.7,127.1z"/>
</g>
</svg>
