<svg id="Capa_1" enable-background="new 0 0 512 512" height="512" viewBox="0 0 512 512" width="512" xmlns="http://www.w3.org/2000/svg"><g><g fill="#dddaec"><path d="m337.19 355.918h135.385v16.226h-135.385z" transform="matrix(.707 -.707 .707 .707 -138.82 392.942)"/><path d="m358.224 376.952h135.384v16.226h-135.384z" transform="matrix(.707 -.707 .707 .707 -147.532 413.978)"/></g><g fill="#f9f6f6"><path d="m417.803 296.338h16.226v135.384h-16.226z" transform="matrix(.707 -.707 .707 .707 -132.661 407.789)"/><path d="m396.769 317.372h16.226v135.385h-16.226z" transform="matrix(.707 -.707 .707 .707 -153.694 399.079)"/></g><g fill="#dddaec"><path d="m18.396 355.918h135.385v16.226h-135.385z" transform="matrix(.707 -.707 .707 .707 -232.203 167.511)"/><path d="m39.431 376.952h135.384v16.226h-135.384z" transform="matrix(.707 -.707 .707 .707 -240.915 188.546)"/></g><g fill="#f9f6f6"><path d="m99.01 296.338h16.226v135.384h-16.226z" transform="matrix(.707 -.707 .707 .707 -226.032 182.369)"/><path d="m77.976 317.372h16.226v135.385h-16.226z" transform="matrix(.707 -.707 .707 .707 -247.067 173.658)"/></g><path d="m337.988 142.247c-9.89 0-18.816-5.553-23.182-14.621-4.723-9.811-2.905-21.229 4.632-29.088l13.548-14.116c2.955-3.079 7.846-3.179 10.925-.224 3.078 2.955 3.179 7.846.224 10.924l-13.546 14.114c-4.625 4.822-2.593 10.164-1.859 11.686.731 1.52 3.624 6.432 10.282 5.824l21.315-1.947c4.255-.384 8.009 2.742 8.397 6.992.388 4.249-2.741 8.009-6.991 8.397l-21.315 1.947c-.815.076-1.626.112-2.43.112z" fill="#f6e266"/><path d="m384.035 253.444c-1.669 0-3.35-.538-4.765-1.648-3.357-2.634-3.943-7.491-1.309-10.848l51.066-65.082c7.126-9.082 5.859-19.455 2.297-26.134-3.561-6.679-11.464-13.511-22.982-12.652l-31.519 2.347c-4.272.318-7.961-2.877-8.279-7.131-.317-4.255 2.876-7.962 7.132-8.279l31.519-2.347c15.826-1.179 30.297 6.789 37.765 20.791 7.468 14.003 6.021 30.459-3.776 42.944l-51.066 65.082c-1.524 1.942-3.793 2.957-6.083 2.957z" fill="#f6e266"/><path d="m96.611 277.947c-53.353 0-96.611 43.247-96.611 96.6s43.258 96.611 96.611 96.611 96.601-43.258 96.601-96.611-43.248-96.6-96.601-96.6zm0 162.594c-36.448 0-65.994-29.546-65.994-65.994s29.546-65.994 65.994-65.994 65.994 29.546 65.994 65.994-29.546 65.994-65.994 65.994z" fill="#26457d"/><g fill="#21386b"><path d="m15.074 374.547c0-50.817 39.243-92.465 89.074-96.31-2.487-.192-5-.291-7.537-.291-53.353.001-96.611 43.248-96.611 96.601s43.258 96.611 96.611 96.611c2.536 0 5.05-.099 7.537-.291-49.832-3.845-89.074-45.502-89.074-96.32z"/><path d="m104.148 440.1c2.475.281 4.987.441 7.537.441 36.448 0 65.994-29.546 65.994-65.994s-29.546-65.994-65.994-65.994c-2.55 0-5.062.16-7.537.441 32.897 3.742 58.457 31.655 58.457 65.553s-25.561 61.811-58.457 65.553z"/></g><path d="m415.399 277.947c-53.353 0-96.611 43.247-96.611 96.601s43.258 96.611 96.611 96.611 96.601-43.258 96.601-96.612-43.247-96.6-96.601-96.6zm0 162.594c-36.448 0-65.994-29.546-65.994-65.994s29.546-65.994 65.994-65.994 65.994 29.546 65.994 65.994-29.546 65.994-65.994 65.994z" fill="#26457d"/><g fill="#21386b"><path d="m333.862 374.547c0-50.817 39.243-92.465 89.074-96.31-2.487-.192-5-.291-7.537-.291-53.353 0-96.611 43.247-96.611 96.601s43.258 96.611 96.611 96.611c2.536 0 5.05-.099 7.537-.291-49.831-3.845-89.074-45.502-89.074-96.32z"/><path d="m422.936 440.1c2.475.281 4.987.441 7.537.441 36.448 0 65.994-29.546 65.994-65.994s-29.546-65.994-65.994-65.994c-2.55 0-5.062.16-7.537.441 32.897 3.742 58.457 31.655 58.457 65.553s-25.56 61.811-58.457 65.553z"/></g><g><path d="m383.92 182.052c-5.445 0-10.432-3.624-11.925-9.13l-24.257-89.448c-1.787-6.59 2.107-13.38 8.696-15.167 6.594-1.787 13.38 2.107 15.167 8.696l5.406 19.939 18.851 69.509c1.787 6.59-2.107 13.38-8.696 15.167-1.083.294-2.172.434-3.242.434z" fill="#f9f6f6"/><path d="m391.552 179.416c-1.267.989-2.74 1.751-4.389 2.194-1.082.299-2.174.443-3.235.443-5.45 0-10.436-3.626-11.93-9.138l-24.262-89.442c-1.782-6.593 2.112-13.382 8.705-15.175 2.071-.556 4.172-.556 6.119-.093-3.791 2.977-5.656 8.035-4.317 12.98l24.262 89.452c1.228 4.514 4.803 7.759 9.047 8.779z" fill="#dddaec"/></g><g><path d="m242.331 360.135-66.045-83.795-21.5-27.279-34.779-44.113c-5.285-6.707-4.131-16.421 2.575-21.706 6.696-5.285 16.411-4.131 21.696 2.575l37.159 47.141 21.83 27.702 63.336 80.344c5.284 6.697-21.223 22.994-24.272 19.131z" fill="#9dc6fb"/><path d="m258.774 353.674c-6.573 4.873-14.824 8.509-16.442 6.459l-122.325-155.187c-5.285-6.707-4.141-16.421 2.565-21.706 2.431-1.916 5.264-2.988 8.138-3.245-4.08 5.46-4.162 13.176.258 18.78l122.325 155.187c.731.928 2.812.701 5.481-.288z" fill="#80b4fb"/><path d="m181.437 232.959-12.774 2.122c-5.068.845-9.385 4.141-11.517 8.818l-2.359 5.161 21.5 27.279 5.542-12.115 21.438-3.564z" fill="#80b4fb"/><path d="m96.605 390.002c-4.804 0-9.39-2.243-12.336-6.148-3.418-4.533-4.076-10.574-1.713-15.736l63.285-138.27c2.136-4.667 6.45-7.969 11.514-8.812l208.597-34.724c8.42-1.402 23.872 46.566 17.939 52.7l-118.315 122.301c-2.353 2.432-5.44 4.025-8.786 4.533l-157.862 23.981c-.776.118-1.552.175-2.323.175zm73.922-139.827-47.967 104.802 124.431-18.902 113.729-117.56z" fill="#9dc6fb"/><g fill="#80b4fb"><path d="m264.642 336.075 113.73-117.561h-17.652l-113.73 117.561z"/><path d="m101.922 383.854c-3.418-4.533-4.076-10.574-1.713-15.736l65.603-141.773c1.824-3.986 5.244-6.962 9.356-8.275l-17.813 2.965c-5.063.843-9.378 4.145-11.514 8.812l-63.285 138.27c-2.363 5.162-1.705 11.203 1.713 15.736 2.946 3.906 7.532 6.149 12.336 6.148.771 0 1.547-.058 2.323-.176l8.721-1.325c-2.217-1.048-4.197-2.616-5.727-4.646z"/></g><path d="m415.387 390.006c-6.805 0-13.039-4.53-14.906-11.413l-53.04-195.613c-2.126-7.841 2.183-15.989 9.86-18.647l26.721-9.25c8.064-2.791 16.865 1.483 19.657 9.548s-1.483 16.866-9.548 19.658l-13.086 4.53 49.264 181.686c2.233 8.237-2.634 16.725-10.87 18.958-1.353.368-2.714.543-4.052.543z" fill="#9dc6fb"/><path d="m426.117 385.68c-1.813 1.751-4.079 3.08-6.686 3.781-1.349.371-2.709.546-4.049.546-6.81 0-13.042-4.533-14.907-11.414l-53.033-195.613c-2.133-7.84 2.184-15.989 9.859-18.646l9.715-3.358c-6.336 3.286-9.674 10.631-7.757 17.729l53.044 195.612c1.761 6.511 7.437 10.91 13.814 11.363z" fill="#80b4fb"/></g><circle cx="254.469" cy="350.569" fill="#f9f6f6" r="32.888"/><path d="m254.469 391.183c-22.395 0-40.614-18.219-40.614-40.614s18.219-40.614 40.614-40.614 40.614 18.219 40.614 40.614c0 22.394-18.219 40.614-40.614 40.614zm0-65.776c-13.874 0-25.162 11.287-25.162 25.161s11.287 25.161 25.162 25.161 25.161-11.287 25.161-25.161c.001-13.873-11.286-25.161-25.161-25.161z" fill="#dddaec"/><path d="m267.797 417.906c-3.538 0-6.728-2.445-7.533-6.041l-13.335-59.609c-.932-4.164 1.689-8.295 5.853-9.227 4.17-.931 8.295 1.689 9.227 5.853l13.335 59.609c.932 4.164-1.689 8.295-5.853 9.227-.568.127-1.135.188-1.694.188z" fill="#21386b"/><path d="m155.017 152.253h-60.123c-17.01 0-31.388 13.336-31.855 30.34-.484 17.642 13.673 32.095 31.205 32.095 9.159 0 17.397-3.945 23.108-10.228 12.457-13.705 30.492-20.99 49.013-20.99h19.868c.001-17.241-13.976-31.217-31.216-31.217z" fill="#26457d"/><path d="m111.098 209.738c-4.863 3.132-10.652 4.945-16.854 4.945-17.534 0-31.689-14.454-31.204-32.09.474-17.008 14.845-30.339 31.853-30.339h33.698c-17.008 0-31.39 13.331-31.853 30.339-.31 11.394 5.49 21.469 14.36 27.145z" fill="#21386b"/><circle cx="358.256" cy="69.276" fill="#26457d" r="28.434"/><circle cx="358.256" cy="69.276" fill="#21386b" r="11.911"/><path d="m285.279 418.419h-38.026c-4.267 0-7.726-3.459-7.726-7.726s3.459-7.726 7.726-7.726h38.026c4.268 0 7.726 3.459 7.726 7.726s-3.459 7.726-7.726 7.726z" fill="#26457d"/></g></svg>